<svg xmlns="http://www.w3.org/2000/svg" viewBox="0 0 1100 460" font-family="'Geist Sans', -apple-system, BlinkMacSystemFont, 'Inter', 'Segoe UI', Roboto, system-ui, sans-serif">
  <defs>
    <marker id="arr" viewBox="0 0 10 10" refX="10" refY="5"
            markerUnits="userSpaceOnUse" markerWidth="14" markerHeight="10" orient="auto-start-reverse">
      <path d="M0 0 L10 5 L0 10 z" fill="#a1a1aa"/>
    </marker>
    <filter id="shCard" x="-10%" y="-10%" width="120%" height="120%">
      <feDropShadow dx="0" dy="1" stdDeviation="2" flood-opacity="0.06"/>
    </filter>
  </defs>

  <rect width="1100" height="460" rx="16" fill="#fafaf9" stroke="#e4e4e7" stroke-width="1"/>

  <!-- ELMO subgraph -->
  <rect x="220" y="80" width="440" height="320" rx="14" fill="#ffffff"
        stroke="#e4e4e7" stroke-width="1" filter="url(#shCard)"/>
  <text x="240" y="108" fill="#71717a" font-size="11" font-weight="600" letter-spacing="3.5">ELMO</text>

  <!-- LLM APIs group -->
  <rect x="720" y="90" width="360" height="140" rx="14" fill="#ffffff"
        stroke="#e4e4e7" stroke-width="1" filter="url(#shCard)"/>
  <text x="740" y="118" fill="#71717a" font-size="11" font-weight="600" letter-spacing="3.5">LLM APIs</text>

  <!-- LLM Scrapers group -->
  <rect x="720" y="250" width="360" height="140" rx="14" fill="#ffffff"
        stroke="#e4e4e7" stroke-width="1" filter="url(#shCard)"/>
  <text x="740" y="278" fill="#71717a" font-size="11" font-weight="600" letter-spacing="3.5">LLM SCRAPERS</text>

  <!-- Connectors -->
  <line x1="162" y1="160" x2="248" y2="160" stroke="#a1a1aa" stroke-width="2" marker-end="url(#arr)"/>
  <line x1="148" y1="320" x2="218" y2="240" stroke="#a1a1aa" stroke-width="2"
        marker-start="url(#arr)" marker-end="url(#arr)"/>
  <path d="M 632 320 C 660 320, 650 160, 675 160" stroke="#a1a1aa" stroke-width="2" fill="none"/>
  <line x1="632" y1="160" x2="718" y2="160" stroke="#a1a1aa" stroke-width="2" marker-end="url(#arr)"/>
  <line x1="632" y1="320" x2="718" y2="320" stroke="#a1a1aa" stroke-width="2" marker-end="url(#arr)"/>

  <!-- User -->
  <rect x="20" y="130" width="140" height="60" rx="30" fill="#18181b"/>
  <text x="90" y="166" text-anchor="middle" fill="white" font-size="15" font-weight="600">User</text>

  <!-- Postgres (flat cylinder) -->
  <ellipse cx="90" cy="350" rx="58" ry="11" fill="#0d9488"/>
  <rect x="32" y="290" width="116" height="60" fill="#0d9488"/>
  <ellipse cx="90" cy="290" rx="58" ry="11" fill="#14b8a6"/>
  <text x="90" y="328" text-anchor="middle" fill="white" font-size="15" font-weight="600">Postgres</text>

  <!-- Web Server -->
  <rect x="250" y="130" width="380" height="60" rx="10" fill="#2563eb"/>
  <text x="440" y="166" text-anchor="middle" fill="white" font-size="15" font-weight="600">Web Server</text>

  <!-- Worker -->
  <rect x="250" y="290" width="380" height="60" rx="10" fill="#2563eb"/>
  <text x="440" y="326" text-anchor="middle" fill="white" font-size="15" font-weight="600">Worker</text>

  <!-- LLM API chips -->
  <g>
    <rect x="736" y="140" width="160" height="32" rx="6" fill="#fafafa" stroke="#e4e4e7" stroke-width="1"/>
    <circle cx="752" cy="156" r="4" fill="#a855f7"/>
    <text x="764" y="161" fill="#18181b" font-size="13" font-weight="500">OpenRouter</text>

    <rect x="904" y="140" width="160" height="32" rx="6" fill="#fafafa" stroke="#e4e4e7" stroke-width="1"/>
    <circle cx="920" cy="156" r="4" fill="#f59e0b"/>
    <text x="932" y="161" fill="#18181b" font-size="13" font-weight="500">Anthropic</text>

    <rect x="736" y="184" width="160" height="32" rx="6" fill="#fafafa" stroke="#e4e4e7" stroke-width="1"/>
    <circle cx="752" cy="200" r="4" fill="#10b981"/>
    <text x="764" y="205" fill="#18181b" font-size="13" font-weight="500">OpenAI</text>

    <rect x="904" y="184" width="160" height="32" rx="6" fill="#fafafa" stroke="#e4e4e7" stroke-width="1"/>
    <circle cx="920" cy="200" r="4" fill="#fa6c00"/>
    <text x="932" y="205" fill="#18181b" font-size="13" font-weight="500">Mistral</text>
  </g>

  <!-- LLM Scraper chips -->
  <g>
    <rect x="736" y="300" width="160" height="32" rx="6" fill="#fafafa" stroke="#e4e4e7" stroke-width="1"/>
    <circle cx="752" cy="316" r="4" fill="#10b981"/>
    <text x="764" y="321" fill="#18181b" font-size="13" font-weight="500">ChatGPT</text>

    <rect x="904" y="300" width="160" height="32" rx="6" fill="#fafafa" stroke="#e4e4e7" stroke-width="1"/>
    <circle cx="920" cy="316" r="4" fill="#3b82f6"/>
    <text x="932" y="321" fill="#18181b" font-size="13" font-weight="500">Google AI Mode</text>

    <rect x="736" y="344" width="160" height="32" rx="6" fill="#fafafa" stroke="#e4e4e7" stroke-width="1"/>
    <circle cx="752" cy="360" r="4" fill="#8b5cf6"/>
    <text x="764" y="365" fill="#18181b" font-size="13" font-weight="500">Perplexity</text>

    <rect x="904" y="344" width="160" height="32" rx="6" fill="#fafafa" stroke="#e4e4e7" stroke-width="1"/>
    <circle cx="920" cy="360" r="4" fill="#52525b"/>
    <text x="932" y="365" fill="#18181b" font-size="13" font-weight="500">Grok</text>
  </g>
</svg>
